<?xml version="1.0" standalone="no"?><!DOCTYPE svg PUBLIC "-//W3C//DTD SVG 1.1//EN" "http://www.w3.org/Graphics/SVG/1.1/DTD/svg11.dtd"><svg t="1594322832174" class="icon" viewBox="0 0 1024 1024" version="1.1" xmlns="http://www.w3.org/2000/svg" p-id="8915" xmlns:xlink="http://www.w3.org/1999/xlink" width="200" height="200"><defs><style type="text/css"></style></defs><path d="M810.325 356.59a34.219 34.219 0 0 0 48.265 0l0.956-0.955a34.219 34.219 0 0 0 0-48.264L587.86 35.686a34.219 34.219 0 0 0-48.264 0l-0.956 0.956a34.219 34.219 0 0 0 0 48.265L810.325 356.59zM342.477 824.44a34.219 34.219 0 0 0 48.264 0l0.956-0.956a34.219 34.219 0 0 0 0-48.265L120.013 503.518a34.219 34.219 0 0 0-48.265 0l-0.955 0.956a34.219 34.219 0 0 0 0 48.264L342.477 824.44z m640.256 49.34L625.152 516.197l87.091-87.09a68.454 68.454 0 0 0 0-96.547L562.671 182.99a68.454 68.454 0 0 0-96.546 0l-248.03 248.013a68.454 68.454 0 0 0 0 96.546L367.667 677.12a68.454 68.454 0 0 0 96.546 0l87.092-87.091 357.58 357.58a51.354 51.354 0 0 0 72.414 0l1.434-1.433a51.37 51.37 0 0 0 0-72.397z m-225.45 54.886c-19.218 0-34.8-15.582-34.8-34.8s-15.582-34.798-34.816-34.798H130.765c-19.217 0-34.8 15.582-34.8 34.799s-15.581 34.799-34.815 34.799a34.816 34.816 0 0 0 0 69.597h696.132a34.816 34.816 0 0 0 0-69.597z" p-id="8916"></path></svg>