<?xml version="1.0" standalone="no"?><!DOCTYPE svg PUBLIC "-//W3C//DTD SVG 1.1//EN" "http://www.w3.org/Graphics/SVG/1.1/DTD/svg11.dtd"><svg t="1594322678009" class="icon" viewBox="0 0 1034 1024" version="1.1" xmlns="http://www.w3.org/2000/svg" p-id="6091" xmlns:xlink="http://www.w3.org/1999/xlink" width="201.953125" height="200"><defs><style type="text/css"></style></defs><path d="M0.13 245.972V756.28s7.637 55.536 25.114 73.012c17.476 17.477 49.969 35.73 49.969 35.73l358.846 97.996s31.975 9.45 40.519 5.437c8.414-4.013 5.955-16.182 5.955-16.182V377.11L0.13 245.972z m1034.206 0l-152.367 41.555v221.625l-100.456 27.185V314.971l-229.392 62.656V905.41s-1.424 52.817 5.307 62.267c6.732 9.58 40.131-3.883 40.131-3.883l322.47-88.029s68.092-17.864 93.077-42.849c24.984-24.985 21.36-130.23 21.36-130.23V245.971z m-1.683-53.205L544.742 57.747s-21.101-5.05-28.35-5.05c-7.25 0-29.128 5.438-29.128 5.438L336.71 99.69l520.145 140.586 175.798-47.51zM0 192.767l516.133 139.551 203.112-54.888-518.462-140.2L0 192.767z m0 0" p-id="6092"></path></svg>