<?xml version="1.0" standalone="no"?><!DOCTYPE svg PUBLIC "-//W3C//DTD SVG 1.1//EN" "http://www.w3.org/Graphics/SVG/1.1/DTD/svg11.dtd"><svg t="1594221985704" class="icon" viewBox="0 0 1024 1024" version="1.1" xmlns="http://www.w3.org/2000/svg" p-id="1317" xmlns:xlink="http://www.w3.org/1999/xlink" width="200" height="200"><defs><style type="text/css"></style></defs><path d="M936.105 995.939H87.912c-48.474 0-87.912-40.145-87.912-89.482V354.47c0-49.337 39.438-89.477 87.912-89.477h35.816V105.049c0-24.364 9.958-46.618 27.314-61.056C168.724 29.289 192.759 23.724 217.007 28.745l670.88 140.539 53.578 11.089c46.295 9.579 82.552 54.19 82.552 101.562v624.522c0 49.337-39.437 89.482-87.912 89.482z m-5.36-761.898l-53.64-11.102L206.224 82.403c-8.429-1.752-15.939-0.317-21.137 4-4.939 4.11-7.55 10.561-7.55 18.646v159.944h28.981v-0.068h702.257c12.449 0 23.914-6.91 29.925-18.029a34.626 34.626 0 0 0 3.283-8.739c-3.594-1.901-7.371-3.316-11.238-4.116z m39.463 599.878v-539.71c-16.201 16.099-38.145 25.483-61.433 25.483h-26.31v0.066H87.912c-18.806 0-34.104 15.575-34.104 34.712v551.987c0 19.14 15.298 34.715 34.104 34.715h848.193c18.807 0 34.103-15.575 34.103-34.715v-72.538zM206.627 711.966c-44.744 0-81.15-37.053-81.15-82.592 0-45.545 36.406-82.598 81.15-82.598 44.746 0 81.149 37.053 81.149 82.598 0 45.539-36.403 82.592-81.149 82.592z m0-110.426c-15.074 0-27.34 12.486-27.34 27.834 0 15.342 12.266 27.827 27.34 27.827 15.078 0 27.342-12.485 27.342-27.827 0-15.348-12.264-27.834-27.342-27.834z" p-id="1318"></path></svg>